<?xml version="1.0" standalone="no"?><!DOCTYPE svg PUBLIC "-//W3C//DTD SVG 1.1//EN" "http://www.w3.org/Graphics/SVG/1.1/DTD/svg11.dtd"><svg t="1666967537740" class="icon" viewBox="0 0 1024 1024" version="1.1" xmlns="http://www.w3.org/2000/svg" p-id="1341" xmlns:xlink="http://www.w3.org/1999/xlink" width="200" height="200"><path d="M512.59287366 39.16240928c101.66680135 0 203.33360411-0.43916538 305.04432172 0.13175014 90.90724823 0.5269979 164.42354506 70.7495544 165.08229313 161.7007189 1.4492463 201.13777721 1.4492463 402.31946928 0 603.45724651-0.65874806 90.95116449-74.13112863 161.08588709-165.38970833 161.34938604-204.08018467 0.5269979-408.16037074 0.5269979-612.19663918 0.04391626-86.95475984-0.17566641-157.52864782-67.19231373-164.11612846-154.01532341-0.65874806-8.73939266-0.83441449-17.52270159-0.83441449-26.30601051-0.04391627-188.70939373-0.08783252-377.4627051 0-566.1720988 0.04391627-111.50410747 68.7733102-180.18958512 180.54091661-180.40916781 97.27514758-0.17566641 194.59421143-0.04391627 291.869359-0.04391628v0.26349896z" fill="#123450" p-id="1342"></path><path d="M103.72983861 586.23081143c4.83082053-42.33554954 9.13464178-82.25568948 13.96546092-122.08799554 7.94889442-65.39173597 7.20231385-131.31046983 12.16488316-196.87787085 2.591076-34.25490494 3.29374033-68.64156003 4.65515409-102.98429886 0.6148318-15.72212382 8.30022727-25.99859529 22.92443627-31.35641234 59.46300199-21.91435535 118.79425521-44.09221104 178.43292225-65.52348613 21.51910762-7.72931173 34.78190421-0.83441449 43.03821523 20.81644329 8.03672833 21.07994224 15.28295705 42.51121596 23.31968538 63.59115682 12.82363122 33.72790703 37.81214559 51.25060861 73.51629545 52.56810474 24.85676421 0.92224702 49.80136231 1.05399717 74.61421027-0.08783391 34.78190421-1.58099508 59.11166914-19.19153056 71.67180278-51.95327294 8.08064459-21.07994224 15.28295705-42.51121596 23.31968539-63.63507307 8.30022727-21.65085641 20.64077686-27.88700558 43.12604638-21.12385849 58.62858751 17.6105341 117.08150857 35.7480675 175.6661812 53.40251922 17.8301168 5.35781843 25.60334619 16.33695424 25.86684513 35.35281839 1.18574735 84.84676549 3.11807527 169.64961332 5.182152 254.49637879 1.36141241 55.73009629 15.10729201 109.83527985 23.4953518 164.59921148 2.28366079 14.84379168 0.5269979 27.140425-8.3880598 39.08572547-51.95327295 69.60772331-103.51129676 139.47894695-155.59631988 208.95492148-13.70196197 18.26928217-33.99140598 22.17785568-48.8791153 4.9625693-32.01516179-37.02164736-71.93530036-41.45721877-116.81800962-39.74447353-59.19950304 2.23974316-118.53075488 1.01008092-177.77417418 0.30741659-21.78260657-0.26349895-39.96405621 5.57740112-55.07134822 21.60694015-6.98273115 7.42189652-15.19512453 13.74587823-23.27576913 19.93811116-16.20520545 12.4283821-34.16707241 11.85746656-46.59545313-3.46940677-58.05767196-71.40830246-115.50051349-143.29968655-173.20685399-215.01540561-6.71923082-8.25631102-11.28655241-17.17136874-9.35422445-25.82292884z" fill="#F5DA65" p-id="1343"></path><path d="M232.18573348 939.23200142c-99.55880837 7.68539548-167.40987018-54.10518356-167.54162035-147.51567529-0.21958269-193.05713261-0.26349895-386.07034758 0-579.12748019 0.13175017-86.77909341 60.82441439-147.34000885 147.47175903-148.13050708 15.2390408-0.13175017 30.52199922 0 46.77111955 3.9085735-32.27866074 12.03313299-64.55732146 24.15409987-96.87989845 36.14331662-42.64296473 15.80995633-52.04110546 29.16058545-53.97343341 74.04329472-5.70915129 134.25287868-9.00289162 268.68142241-29.731501 401.79247139-3.07415763 19.67461221 11.94530047 36.40681556 7.68539548 55.73009491-7.90497817 35.70415122 6.10440039 64.86473667 24.37368257 94.11315742 22.39743837 35.87981766 42.33554954 73.34063039 63.37157413 110.09877742 9.35422447 16.33695424 18.70844755 31.75166146 19.367197 52.3046058 0.65874806 20.64077686 14.93162558 35.44065228 39.08572545 46.63937078zM779.6054671 66.25891801c81.64085766-10.23255522 142.15785684 21.56302388 169.29828184 88.88708777 7.50972906 18.57669876 10.18863895 38.07564454 10.18863896 57.88200553 0.08783252 193.18888141 0.30741521 386.37776418-0.04391764 579.52272932-0.13175017 83.30968667-60.95616454 147.60350782-138.68844871 148.04267318-2.591076 0-5.22606826-0.65874806-10.58388808-1.40532867 24.63718151-19.45502953 38.03172828-40.97413714 28.01875576-71.18871976-2.32757706-7.07056367 3.46940674-12.29663331 6.63139829-17.87403443 28.50183739-50.15269517 56.82800974-100.39322148 85.94467893-150.19458381 6.58748205-11.28655241 9.70555594-22.17785568 8.73939265-35.22106959-1.58099508-21.78260657-1.88841167-43.21388029 4.83082054-64.90865295 5.97265023-19.23544683-2.10799436-39.08572546-6.06048415-58.14550586-25.38376349-122.83457611-17.74228427-247.51364765-21.51910623-371.49005485-1.49316255-48.7912814-10.58388669-62.93240874-57.09150868-77.3809527-26.34992676-8.16847712-52.74377117-16.29303797-79.09369793-24.50543273-0.35133285-0.08783252-0.39524911-1.31749613-0.57091555-2.02016045z" fill="#EA5B5A" p-id="1344"></path><path d="M218.65943655 886.6199804c-0.79049823-27.97483949 12.516216-53.66601818 12.95538139-86.47167682 12.56013227 15.28295705 22.17785568 27.5356741 32.36649326 39.30530677 27.00867483 31.31249609 60.38524901 35.17715195 89.2823369 6.28006683 25.77901261-25.77901261 53.75385071-35.04540316 89.94108357-33.37657419 60.51699917 2.76674242 121.29749729 1.14182971 181.94624664 0.52699791 16.29303797-0.17566641 28.94100276 4.4355714 41.50113504 15.28295842 58.40900482 50.41619412 66.44573314 49.27436303 128.89506025-14.14112733 5.26998591 25.20809707 17.21528637 47.47378527 18.88411398 72.63796469-5.00648557 7.11447995-12.516216 9.70555594-20.46510905 11.72571776-7.81714565 1.9762442-16.07345529 2.45932721-23.58318573 5.182152-47.78120048 17.21528637-90.16066765 11.06696972-126.91881467-26.3060105-11.02305345-11.24263614-26.43776067-15.01945811-42.4672997-15.06337435-51.25060861-0.04391627-102.45729959 0-153.70790819-0.04391627-14.44854394 0-27.31609142 4.21598873-39.21747425 12.1209655-12.20879941 8.08064459-24.37368256 16.2491217-36.62639825 24.24193378-7.37798027 4.83082053-14.93162558 9.96905628-23.71493451 11.06696834-45.32187463 5.84090006-88.18442207-3.29374033-129.07072668-22.96835254z" fill="#F5DA65" p-id="1345"></path><path d="M616.80683476 93.44325926c-6.98273115 18.79628146-13.08713017 38.25131097-21.34344118 56.74017583-8.47589372 18.97194787-24.94459812 28.45792114-45.45362344 29.07275294-24.81284795 0.7465806-49.71352842 0.87833075-74.52637772 0-26.39384303-0.92224702-42.33554954-15.54645739-51.29452488-40.27147144-17.74228427-48.96694783-18.2253659-48.7912814 33.99140597-48.79128139 45.32187463 0 90.59983303-0.08783252 135.92170766 0.08783252 7.07056367 0.08783252 14.4924602-1.84449541 22.70485359 3.16199154z" fill="#EA5B5A" p-id="1346"></path><path d="M218.65943655 886.6199804c30.56591548 6.19223292 61.2196635 12.16488316 91.74166274 18.57669878 20.99210834 4.4355714 40.79847071 2.10799436 57.2671751-11.94530047 36.49464946-31.09291339 77.86403433-42.20379936 125.55740228-37.76822935 31.88341162 2.98632512 64.29382252 1.66882898 96.35290059 0.2195827 27.27217515-1.22966361 49.49394572 6.54356577 69.25639182 25.60334618 22.5731048 21.73869029 49.01086409 32.58607595 81.50910751 23.14401895 24.37368256-7.07056367 49.40611322-11.94530047 74.13112726-17.78620051 1.71274525 13.70196197-4.83082053 22.35352211-17.08353484 27.05259246-23.14401895 8.82722518-46.33195556 17.52270159-69.56380842 26.04251156-12.4283821 4.56732019-23.67101825 1.40533004-31.75166146-8.34414493-40.71063681-48.96694783-93.23482529-63.8107395-154.71798911-56.78409209-20.2016101 2.32757706-41.06196965 2.15191061-61.30749604 0-44.66312657-4.69907036-82.25568948 9.04680787-113.21685408 40.40322159-25.20809707 25.55942992-52.0850231 31.57599642-84.53934889 14.53637647-13.39454675-7.02664741-28.54575364-10.62780434-42.90646506-15.80995634-12.73579869-4.56732019-21.29952493-12.38446586-20.7286094-27.140425z" fill="#D1BA55" p-id="1347"></path><path d="M379.08657558 939.31983394c25.77901261-24.94459812 50.32836022-42.07205057 86.25209551-39.7005559 38.60264383 2.54715973 77.60053538 2.54715973 116.15926156 0 35.2210696-2.37149331 59.8582511 12.29663331 82.21177185 39.7005559h-284.62312892z" fill="#EA5B5A" p-id="1348"></path><path d="M199.81923885 835.8524548c-31.97124553-62.05407798-69.47597452-113.91951842-90.46808287-174.52435011 17.78620053 11.11088598 26.43776067 28.67750382 37.68039543 44.04829478 16.33695424 22.30960448 31.75166146 45.32187463 47.73728559 67.89497807 12.4283821 17.43486906 13.26279661 35.92373391 5.05040185 62.58107726z" fill="#E95B5A" p-id="1349"></path><path d="M909.64235707 659.30794287c6.85098099 7.50972906 6.06048275 14.09721108 2.76674242 19.93811115-27.93092322 49.36219694-56.12534403 98.54872746-85.32984713 149.75541981-10.40822165-23.01227019-6.67531456-41.01805341 5.40173608-58.3211723 25.47159601-36.58248197 50.76752559-73.25279788 77.16136863-111.37235866z" fill="#E85B5A" p-id="1350"></path><path d="M625.4583949 64.80967171h-226.60937321v-2.15191063h226.5215393c0.04391627 0.70266433 0.04391627 1.4492463 0.08783391 2.15191063z" fill="#644254" p-id="1351"></path><path d="M226.87183133 364.01309336c79.62069584 8.69547639 154.36665628 16.73220335 229.06869904 24.98851436 52.65593726 5.84090006 104.87270916 1.62491273 157.17731495-4.87473679 59.37516947-7.42189652 118.88208772-13.74587823 178.43292225-19.5867783 28.63358755-2.81065868 50.94319203 25.77901261 42.51121596 52.8316037-2.81065868 9.04680787-6.63139829 17.78620053-8.78330893 26.96475857-3.11807527 13.17496406-11.85746656 17.39095141-23.97843346 21.69477266-59.11166914 21.07994224-117.56459159 22.22177195-176.36884552-0.57091417-7.42189652-2.85457495-15.45862349-4.47948768-23.36360165-5.66523501-19.45502953-2.94240886-31.09291339-11.85746656-27.97483948-33.46440671 1.71274525-11.72571779-4.17207247-12.34054958-14.18504361-11.2865524-31.26857982 3.24982406-62.75674233 4.30382125-93.93749101-0.83441448-11.9013842-1.93232793-16.16128919 1.27357986-14.88770793 13.17496407 1.93232793 18.4449486-6.14831666 28.85317024-25.03243063 31.44424623-10.80347075 1.49316255-21.82652283 3.64507318-31.83949537 7.72931174-57.61850658 23.45143555-114.666099 19.367197-172.021108-0.92224839-16.60045456-5.88481771-38.25131097-45.27795838-34.86973675-66.79706461 2.45932721-15.98562275 27.88700558-35.48456854 40.05189014-34.82582047z" fill="#123450" p-id="1352"></path><path d="M806.39456063 417.06427973c-0.13175017 17.12745246-9.88122237 22.39743837-25.47159601 28.76533773-59.81433485 24.50543274-115.50051349 4.30382125-172.19677443-10.32038775-9.00289162-2.32757706-9.48597324-7.11447995-8.51980999-14.14112873 5.182152-5.66523363 11.76963404-7.94889442 19.32328074-8.73939128 54.14909983-5.57740112 108.29819965-11.46221883 162.44729948-16.99570368 19.76244473-1.93232793 24.98851437 3.07415763 24.41760021 21.43127371zM423.7936198 421.45593488c1.27357986 7.07056367 0.70266433 11.9013842-8.34414354 14.00937719-33.15699149 7.77322801-65.65523491 20.33336028-99.16355926 23.75885076-30.78549817 3.16199154-61.13183098-10.23255522-90.46808287-19.93811115-9.22247429-3.03024138-9.39814073-19.98202741-12.34054958-31.09291339 6.54356577-8.03672833 15.45862349-11.41830119 25.29592959-10.4521379 58.58467124 5.88481771 117.38892516 9.66163968 175.62226492 18.40103233 3.64507318 0.57091554 6.67531456 2.81065868 9.39814074 5.31390216z" fill="#FFFFFF" p-id="1353"></path><path d="M423.7936198 421.45593488c-56.56451077-5.57740112-113.17293644-10.89130329-169.73744723-16.82003725-13.96546093-1.4492463-27.36000769-0.7465806-40.62280428 3.60115693 0-13.74587823 8.16847712-19.93811116 20.50902671-18.75236519 60.69266561 5.88481771 121.25358103 12.516216 181.94624663 18.62061502 9.66163968 0.92224702 10.40822165 5.84090006 7.90497817 13.35063049z" fill="#DEE5ED" p-id="1354"></path><path d="M806.39456063 417.06427973c0.48308165-13.70196197-8.25631102-18.35711607-19.5867797-17.0835362-62.22974443 6.80706473-124.41557259 14.22896126-186.60140073 21.43127509-3.29374033-7.86106191-1.31749613-12.38446586 7.77322938-13.26279659 60.60483171-6.10440039 121.16574851-12.69188106 181.81449648-18.3131998 17.30311889-1.62491273 23.89060093 10.27647148 16.60045457 27.2282575z" fill="#DDE5EC" p-id="1355"></path></svg>